<svg
              width="36"
              height="36"
              viewBox="0 0 36 36"
              fill="none"
              xmlns="http://www.w3.org/2000/svg"
            >
              <circle cx="18" cy="18" r="18" fill="#F97316" />

              {/* takeout bag, tilted mid-hop */}
              <g transform="translate(11.5,9) rotate(-8)">
                {/* bag body */}
                <path
                  d="M1 6.5C1 5.4 1.9 4.5 3 4.5H11C12.1 4.5 13 5.4 13 6.5V16C13 17.1 12.1 18 11 18H3C1.9 18 1 17.1 1 16V6.5Z"
                  fill="white"
                />
                {/* fold line across the top of the bag */}
                <path
                  d="M1.6 6.8H12.4"
                  stroke="#F97316"
                  strokeWidth="1"
                />
                {/* handles, like bunny ears — nods to "Hop" */}
                <path
                  d="M4 4.5C4 2.2 4.8 0.5 5.6 0.5C6.2 0.5 6.5 1.6 6.5 3.2"
                  stroke="white"
                  strokeWidth="1.4"
                  strokeLinecap="round"
                />
                <path
                  d="M10 4.5C10 2.2 9.2 0.5 8.4 0.5C7.8 0.5 7.5 1.6 7.5 3.2"
                  stroke="white"
                  strokeWidth="1.4"
                  strokeLinecap="round"
                />
              </g>

              {/* hop / motion arcs beneath, implying a bounce-jump */}
              <path
                d="M8 27C9.5 25.3 12 24.2 14 24.6"
                stroke="white"
                strokeWidth="1.4"
                strokeLinecap="round"
                opacity="0.85"
              />
              <path
                d="M6.5 30.5C8.5 28.2 11.6 26.7 14.2 27.2"
                stroke="white"
                strokeWidth="1.4"
                strokeLinecap="round"
                opacity="0.5"
              />
            </svg>